<svg width="758" height="92" viewBox="0 0 758 92" fill="none" xmlns="http://www.w3.org/2000/svg">
<g clip-path="url(#clip0_16_299)">
<path d="M33.7199 0H33.7235C35.5344 1.15626 37.7211 0.715953 39.7431 0.780389C47.0547 0.755331 54.5775 1.4677 61.2914 4.5642C66.0513 6.73354 70.1812 10.3849 72.5898 15.0601C73.2483 16.4204 74.0607 17.7879 74.1609 19.3272C74.2397 23.1002 74.3256 27.0416 72.7079 30.5497C70.6644 35.3072 66.2302 38.5505 61.5562 40.4514C60.2392 41.0563 58.7146 41.2497 57.5873 42.2233C62.3257 43.1935 67.0927 44.833 70.7145 48.1693C70.396 48.8567 70.0954 49.5476 69.7947 50.2384C70.5964 50.7181 71.4159 51.1728 72.2462 51.6095C72.7294 50.9938 73.3414 50.5105 74.0643 50.1991C76.2295 53.3815 78.0583 56.8682 78.8886 60.6556C79.2429 62.3667 79.5292 64.1602 79.089 65.8856C78.2193 69.4546 77.1099 73.0487 75.0664 76.1381C73.6491 78.2788 71.6199 80.1438 69.0933 80.8347C67.4076 81.3323 65.5144 80.9528 63.9505 81.8621C62.884 82.4098 62.1396 83.3907 61.1518 84.0422C60.1211 84.3894 59.0224 84.4682 57.9559 84.6615C48.8656 86.1328 39.6608 86.9275 30.4489 86.9812C21.967 87.0026 13.4851 86.974 5.00683 86.9955C4.15864 86.9883 2.8631 87.0098 2.71279 85.9037C2.47659 85.3667 3.05278 84.9622 3.32835 84.5863C5.72618 82.1986 8.68231 80.4696 11.2304 78.2752C11.37 68.6563 11.2233 59.0232 11.2984 49.3972C11.3879 46.8591 12.5081 44.5323 13.614 42.3021C13.9826 41.6398 13.7822 40.8702 13.7249 40.1614C13.2382 36.5709 12.823 32.9732 12.3399 29.3827C11.7887 27.2993 14.1078 25.7707 13.8108 23.7231C12.7801 21.8867 11.2806 20.1362 11.2913 17.9096C11.2627 14.8417 11.2913 11.7739 11.2913 8.70599C8.31011 6.56529 5.30745 4.45323 2.3048 2.34117C1.44588 1.70397 0.350749 1.2028 0.00360107 0.103813C10.9728 -0.0357977 21.9312 0.712374 32.8682 1.4856C33.1509 0.988016 33.4336 0.494008 33.7199 0ZM33.6591 10.1522C33.6877 19.2269 33.6806 28.3016 33.6627 37.3763C36.5043 37.405 39.3495 37.4229 42.1911 37.3763C45.2546 37.3119 48.3002 35.8335 50.018 33.2596C51.8897 30.4459 52.8453 27.0093 52.6914 23.6336C52.6163 21.2423 53.0135 18.69 51.879 16.4741C50.6837 14.0112 48.1749 12.5256 45.6625 11.6808C41.8046 10.41 37.696 10.1307 33.6591 10.1522ZM33.6627 46.7625C33.6627 51.8207 33.7128 56.8789 33.6448 61.9371C33.7378 62.9251 32.6642 63.1721 31.9269 63.3404C32.1774 64.0742 32.5031 64.7795 32.7859 65.5062C32.4709 68.0514 31.9484 70.5858 31.9556 73.1669C33.4408 73.8399 33.9955 75.4686 34.5466 76.8755C38.2937 76.9507 42.0694 76.6464 45.727 75.8087C48.8406 75.057 51.9935 73.8076 54.2196 71.4199C55.9947 69.5406 56.8966 66.9595 56.9323 64.4C56.9789 61.325 57.1507 58.0746 55.7155 55.2465C54.2088 52.0462 51.106 49.9377 47.8635 48.7672C43.3291 47.1384 38.4512 46.7553 33.6627 46.7625Z" fill="#FF9900"/>
<path d="M513.865 0H513.969C515.293 1.01665 517.008 0.780389 518.572 0.787549C525.901 0.690895 533.427 1.22786 540.27 4.06661C545.212 6.09276 549.636 9.60451 552.274 14.3012C553.279 16.1984 554.485 18.1816 554.288 20.419C554.389 24.3066 554.17 28.384 552.177 31.8313C549.271 37.1043 543.602 40.0826 538.023 41.7365C538.012 41.8976 537.987 42.2198 537.976 42.3844C542.596 43.1469 547.192 44.9046 550.692 48.087C550.52 48.871 550.212 49.6156 549.976 50.3781C550.77 50.779 551.568 51.1835 552.374 51.5773C552.864 51.0296 553.419 50.5463 554.034 50.1346C556.124 52.9054 557.699 56.0735 558.68 59.4026C559.22 61.5183 559.721 63.77 559.177 65.9357C558.322 69.4546 557.227 72.9879 555.233 76.0414C553.877 78.1141 551.969 79.9398 549.575 80.7202C548.133 81.2285 546.572 81.0674 545.109 81.4254C543.598 81.8585 542.45 82.9933 541.376 84.078C531.738 85.85 521.95 86.8093 512.151 86.9633C503.19 87.0241 494.232 86.9597 485.274 86.9991C484.451 86.9454 483.273 87.11 482.887 86.1793C482.5 85.424 483.205 84.8011 483.685 84.325C485.95 82.2416 488.499 80.5089 490.95 78.6618C491.469 78.404 491.347 77.7955 491.394 77.3194C491.394 68.0084 491.365 58.6939 491.405 49.3829C491.422 46.5549 493.015 44.1206 493.935 41.5575C493.552 37.4837 492.936 33.4279 492.435 29.3612C491.906 27.2921 494.221 25.7457 493.906 23.7124C492.879 21.8867 491.387 20.1362 491.397 17.9239C491.347 14.8346 491.426 11.7452 491.365 8.65588C487.987 6.30397 484.655 3.89121 481.273 1.55004C480.722 1.2028 480.328 0.680156 479.995 0.139611C481.878 0 483.767 0.0823346 485.657 0.100233C494.744 0.257743 503.823 0.776809 512.885 1.51782C513.2 1.00591 513.518 0.497588 513.865 0ZM513.772 10.1486C513.787 19.2305 513.769 28.3088 513.78 37.3907C516.088 37.405 518.4 37.3907 520.715 37.405C523.07 37.4694 525.54 37.1293 527.54 35.7905C530.246 34.0328 531.677 30.9256 532.404 27.8828C533.005 25.803 532.729 23.6265 532.794 21.4965C532.83 19.7532 532.772 17.9275 531.924 16.356C530.675 13.9074 528.138 12.4576 525.615 11.6307C521.8 10.4064 517.752 10.1343 513.772 10.1486ZM513.787 46.7446C513.744 51.7885 513.815 56.836 513.758 61.8798C513.862 62.9072 512.767 63.1578 512.012 63.3726C512.259 64.0957 512.577 64.7973 512.935 65.4739C512.538 67.9726 512.058 70.482 512.083 73.0201C513.422 73.9472 514.137 75.4185 514.692 76.9077C519.484 76.8898 524.38 76.5461 528.914 74.8672C531.921 73.7539 534.798 71.7457 536.108 68.7208C537.257 66.2651 537.053 63.4907 537.046 60.856C537.031 58.2714 536.348 55.6367 534.791 53.539C532.987 51.0725 530.21 49.5153 527.361 48.5524C522.995 47.1061 518.357 46.7768 513.787 46.7446Z" fill="#FF9900"/>
<path d="M160.576 0.461816C162.387 0.193333 164.219 0.336524 166.041 0.307886C172.848 0.257769 179.655 0.404539 186.451 0.776835C187.628 0.830532 188.813 0.984462 189.998 0.898547C197.066 -0.0321921 204.256 0.254189 211.302 1.22431C218.023 2.26244 224.995 4.23489 230.091 8.9745C234.59 13.1056 236.58 19.4596 236.118 25.4557C235.517 29.4329 232.872 32.6797 230.31 35.6187C227.271 39.3882 223.75 43.0002 219.24 44.9512C217.351 45.8031 215.289 46.1396 213.239 46.2649C213.607 47.6288 214.649 48.6347 215.375 49.8053C218.138 53.9471 220.947 58.1283 222.783 62.782C223.309 63.9418 223.27 65.2771 223.8 66.4226C228.123 72.5154 233.659 77.6953 239.837 81.8764C241.923 80.287 244.006 78.694 246.028 77.0187C245.742 72.3543 246.404 67.7328 246.88 63.1041C247.885 63.3941 248.902 63.6626 249.947 63.7736C248.93 60.1007 246.296 56.8933 246.003 52.9913C245.992 43.6803 246.039 34.33 247.284 25.0835C247.452 23.4153 248.075 21.7578 247.732 20.0718C247.134 16.0195 246.45 11.8526 244.425 8.23349C243.355 6.23956 241.418 4.62508 239.078 4.53559C239.106 4.04874 239.139 3.56189 239.174 3.07505C241.837 2.07271 244.453 0.809053 247.291 0.383061C250.741 0.143216 254.206 0.433178 257.663 0.297146C264.738 0.250609 271.864 0.293567 278.846 1.58228C284.858 2.67053 290.792 4.59645 295.992 7.86119C300.237 10.5245 303.97 14.0936 306.6 18.375C307.874 24.2673 311.048 29.4937 313.636 34.8705C314.108 37.6592 314.502 40.4836 314.656 43.308C314.008 49.5476 312.952 55.805 310.798 61.7188C309.467 65.1912 307.695 68.7208 304.65 70.9975C303.028 72.229 301.01 72.8089 298.995 72.8769C296.798 75.4329 294.636 78.0246 292.252 80.4087C291.569 81.0603 290.885 81.7834 289.958 82.059C282.038 84.5112 273.861 86.2223 265.579 86.7807C262.945 86.9418 260.3 87.0814 257.666 86.8595C251.471 86.4764 245.262 86.276 239.053 86.2831C236.319 86.5409 233.606 87.2962 230.839 87.0886C226.13 86.7127 221.402 86.5624 216.678 86.5158C210.061 76.4495 203.454 66.3689 196.454 56.5603C195.115 54.7203 193.766 52.8768 192.231 51.1943C192.442 52.755 193.036 54.2621 192.989 55.8551C192.964 62.9896 192.993 70.1241 192.972 77.2621C195.258 79.521 197.595 81.7583 200.201 83.652C201.113 84.3357 202.148 84.8333 203.236 85.1698C203.221 85.6245 203.211 86.0791 203.203 86.5373C197.492 86.5015 191.78 86.5624 186.068 86.5087C184.93 86.6053 184.597 85.3524 184.486 84.4682C178.055 86.659 171.158 86.6805 164.448 87.1459C163.965 87.468 163.471 87.8797 162.845 87.7795C160.429 87.6327 158.006 87.3714 155.637 86.8702C154.771 86.7163 153.994 86.2903 153.271 85.8142C149.055 87.6434 144.374 86.9382 139.919 87.0778C137.066 87.1996 134.099 86.6733 131.365 87.7329C128.667 86.6769 125.736 87.196 122.919 87.085C122.908 86.77 122.887 86.1399 122.876 85.8285C125.002 84.9837 126.591 83.2726 128.187 81.701C128.964 80.8598 129.873 80.1152 130.488 79.1379C130.503 76.761 129.662 74.5093 128.964 72.2719C129.748 72.161 130.381 71.7385 130.542 70.9259C129.776 70.5608 129.035 70.0811 128.663 69.2936C127.285 66.6982 126.791 63.7521 126.247 60.899C120.299 60.8775 114.355 60.8954 108.407 60.8883C106.578 67.1708 104.456 73.4031 103.307 79.861C105.923 81.3466 107.938 83.6377 110.107 85.6782C110.121 86.1328 110.136 86.5874 110.15 87.0456C105.29 87.2425 100.376 86.6877 95.5696 87.6506C94.9469 87.7974 94.3098 87.7079 93.6943 87.5898C89.0239 86.6841 84.2497 87.2783 79.5328 87.017C79.5542 86.5767 79.5757 86.1328 79.6008 85.6925C84.1316 83.1222 88.0361 79.3921 90.5914 74.8315C92.2699 71.9247 93.3221 68.7136 94.1094 65.4632C99.0268 49.254 103.966 33.0484 108.89 16.8392C109.566 14.3084 110.601 11.8598 111.041 9.2752C108.725 7.18104 105.465 5.80641 104.159 2.79582C107.058 1.81139 109.985 0.533411 113.113 0.687341C119.201 0.737458 125.296 0.619325 131.383 0.744617C135.223 14.7021 138.952 28.7062 143.265 42.5348C142.549 43.3761 142.374 44.4536 142.424 45.5275C142.671 45.7315 142.921 45.9356 143.172 46.1396C142.13 47.6754 142.392 49.6478 142.657 51.3768C143.744 54.3982 146.042 56.7572 148.096 59.1521C148.318 59.4385 148.461 59.7607 148.519 60.1258C149.66 65.2663 150.791 70.4355 152.581 75.3971C153.089 76.6034 153.493 77.9494 154.463 78.8766C157.208 80.5949 159.803 82.5459 162.43 84.4396C165.525 81.8013 168.635 79.1845 171.753 76.5748C171.774 63.6984 171.76 50.8256 171.76 37.9527C171.778 36.2273 172.35 34.5734 172.644 32.8838C172.057 31.7991 171.735 30.5891 171.767 29.347C171.753 24.457 171.763 19.5634 171.767 14.6699C171.753 13.127 171.982 11.441 171.019 10.1057C169.101 7.18462 166.255 5.04392 163.525 2.93543C162.541 2.11567 161.27 1.58228 160.576 0.461816ZM192.195 11.5269C192.585 12.2965 193.082 13.0733 192.986 13.979C192.964 21.6326 192.989 29.2861 192.972 36.9396C193.881 36.6246 194.793 36.2308 195.781 36.3024C199.614 36.3633 203.543 36.2881 207.197 34.9922C209.703 34.1259 212.047 32.5329 213.392 30.2061C214.974 27.4747 215.264 24.142 214.752 21.0705C214.223 17.9203 212.061 15.1997 209.252 13.7356C204.914 11.4231 199.875 11.0329 195.047 10.9398C194.056 10.8646 193.115 11.2083 192.195 11.5269ZM267.73 11.6844C268.897 13.0268 268.535 14.8131 268.571 16.4347C268.571 35.9624 268.571 55.49 268.571 75.0176C270.375 75.0248 272.193 74.946 273.961 74.5487C278.266 73.6466 282.056 70.9224 284.579 67.3533C288.208 62.2772 289.948 56.1272 291.032 50.0559C291.272 47.0274 290.989 43.9775 291.161 40.949C291.408 40.7056 291.676 40.4943 291.973 40.3082C290.574 39.0481 291.354 37.0971 291.003 35.4791C290.059 29.6047 288.634 23.5907 285.216 18.622C282.937 15.2713 279.275 12.7547 275.178 12.4111C272.687 12.2571 270.21 11.9564 267.73 11.6844ZM117.816 29.7085C116.477 34.0687 115.117 38.4217 113.965 42.8355C113.407 45.0263 112.834 47.2207 112.644 49.4796C113.575 49.6299 114.645 49.655 115.368 50.3602C115.93 50.8327 115.969 51.6131 116.159 52.2718C118.435 51.1692 120.675 49.9915 122.894 48.7743C121.455 42.4453 120.038 36.1055 118.66 29.7586C118.449 29.7479 118.027 29.7192 117.816 29.7085Z" fill="#FF9900"/>
<path d="M357.484 1.25295C360.426 0.540575 363.479 0.00360969 366.503 0.501197C371.484 1.61808 376.352 3.1896 381.208 4.75754C381.831 5.09762 382.386 4.56065 382.919 4.30291C385.374 2.84236 388.119 1.82929 390.986 1.62166C391.136 11.9851 391.036 22.3557 391.036 32.7227C388.187 29.483 385.517 26.0786 382.446 23.0358C378.352 18.9227 373.882 14.9778 368.521 12.6151C365.021 11.0901 360.791 10.41 357.262 12.2106C353.619 14.0685 351.443 17.8022 349.986 21.475C347.42 28.1621 346.558 35.3466 346.007 42.4417C345.731 46.8914 345.491 51.3589 345.627 55.8122C346.801 59.8645 348.44 63.8094 350.57 67.4571C352.663 70.9474 355.491 74.3124 359.434 75.7192C362.158 76.6357 365.397 76.7252 367.913 75.1715C370.264 73.6466 371.026 70.6718 371.087 68.0263C371.123 61.8154 371.098 55.6045 371.102 49.3972C371.148 47.8114 370.214 46.4153 369.112 45.3664C367.061 43.4369 364.499 42.1876 361.961 41.0313C361.95 40.4943 361.94 39.9574 361.932 39.424C372.751 39.3667 383.57 39.4204 394.385 39.3954C395.881 39.2629 397.417 40.3189 397.606 41.8511C397.853 42.3701 397.488 42.8642 397.002 43.0109C395.023 43.9488 393.083 44.9655 391.097 45.8783C391.018 59.5745 391.054 73.2743 391.079 86.9704C387.65 87.2962 384.698 85.2056 381.827 83.6592C378.868 85.6137 375.421 86.9024 371.849 86.9704C368.496 86.974 364.831 87.4358 361.911 85.4061C360.601 86.2366 359.123 86.838 357.563 86.9347C351.643 87.2926 345.491 86.1972 340.431 82.979C334.833 79.4887 330.922 73.8649 328.309 67.9082C324.852 59.9146 323.145 51.248 322.322 42.6136C323.156 37.3084 324.469 32.0712 326.201 26.9843C328.477 20.462 331.652 14.0649 336.626 9.17139C340.348 5.47349 345.212 2.9247 350.401 2.09419C352.742 1.6324 355.168 1.89015 357.484 1.25295Z" fill="#FF9900"/>
<path d="M431.172 0.651493C433.159 -2.47061e-05 435.292 0.38659 437.342 0.314995C442.811 0.422388 448.329 0.00355515 453.751 0.941454C460.129 1.96885 466.288 4.79686 470.887 9.38612C476.624 15.0386 479.877 22.71 481.72 30.4387C482.307 33.1486 483.055 35.88 482.905 38.6794C482.923 45.9749 483.202 53.5103 480.571 60.4515C478.442 66.5192 473.832 71.7242 467.87 74.2264C467.687 76.138 466.843 77.9637 465.397 79.2381C462.523 81.8585 458.78 83.226 455.136 84.3965C451.422 85.4955 447.635 86.4119 443.799 86.9561C436.301 87.0277 428.617 85.406 422.233 81.3502C416.997 78.0604 412.874 73.2098 409.986 67.7793C406.188 60.6627 404.245 52.7156 403.15 44.7721C402.427 40.6017 402.978 36.3274 403.905 32.2358C405.698 24.6216 410.154 17.795 415.98 12.6365C419.82 9.1606 424.229 6.38986 428.771 3.93056C429.068 2.57383 429.762 1.13476 431.172 0.651493ZM440.707 11.5984C437.246 12.9623 433.907 14.9741 431.681 18.0205C429.73 20.6445 428.821 23.9415 428.814 27.1883C428.807 34.2369 428.814 41.2818 428.814 48.3304C428.868 51.7813 428.657 55.2465 429.036 58.6867C429.487 62.8929 430.854 67.253 434.007 70.2314C437.256 73.3243 441.92 74.3446 446.282 74.2765C448.48 74.273 450.57 73.199 452.044 71.5989C454.052 69.4367 455.247 66.6695 456.164 63.8988C457.631 59.3095 458.34 54.5234 458.837 49.7444C459.231 46.5477 459.005 43.3187 459.066 40.1077C459.095 34.5769 458.866 28.9603 457.259 23.63C456.271 20.3867 454.703 17.2115 452.17 14.8954C450.058 12.9373 447.292 11.7738 444.454 11.4015C443.208 11.2512 441.877 11.0257 440.707 11.5984Z" fill="#FF9900"/>
<path d="M562.817 1.0596C563.762 0.651503 564.749 0.261308 565.809 0.315005C580.521 0.343643 595.238 0.246989 609.947 0.38302C608.515 1.98318 606.676 3.1287 604.968 4.39952C602.481 6.13571 600.001 7.88621 597.438 9.50427C597.335 12.3359 597.396 15.1675 597.403 17.9991C596.809 18.1208 596.211 18.2174 595.649 18.4071C595.345 19.2842 595.62 20.2364 595.642 21.1421C596.308 30.3135 597.056 39.4848 597.363 48.6777C597.431 57.2727 597.353 65.8713 597.399 74.4627C597.317 75.5545 598.419 76.2741 599.421 76.1846C602.968 76.138 606.543 76.3278 610.079 76.0879C611.757 74.4842 612.763 72.3292 613.962 70.3675C619.062 61.1603 623.614 51.656 628.134 42.1553C628.764 42.1267 629.398 42.1088 630.045 42.0837C630.149 51.6739 630.049 61.2677 630.095 70.8579C630.192 73.2599 629.609 75.6655 628.614 77.8384C628.202 78.8121 627.365 79.478 626.409 79.8538C627.891 81.9945 629.659 83.9384 631.022 86.1614C629.949 86.4728 628.868 86.8272 627.748 86.8129C621.42 86.8057 615.089 86.8702 608.766 87.153C606.26 87.2031 603.762 87.6434 601.254 87.4465C588.144 86.8272 575.01 86.7413 561.886 86.8415C561.886 86.3762 561.883 85.8857 562.384 85.671C566.374 82.7499 570.314 79.7643 574.33 76.8755C574.376 72.7194 574.233 68.5167 575.16 64.4322C574.928 61.9407 574.319 59.4456 574.384 56.9111C574.248 55.9195 574.77 54.4769 573.546 54.0437C574.441 51.7455 574.702 49.2791 575.049 46.8555C575.45 44.3784 575.013 41.8797 574.97 39.3953C574.509 30.2633 574.373 21.1206 574.319 11.9815C574.097 11.8777 573.646 11.6772 573.421 11.5734C573.747 11.1044 574.094 10.6319 574.427 10.1558C572.39 7.86831 569.645 6.40061 567.101 4.76466C565.408 3.86613 564.127 2.41633 562.817 1.0596Z" fill="#FF9900"/>
<path d="M672.841 0.708784C674.391 0.758901 675.894 0.268473 677.447 0.322169C682.712 0.379446 687.976 0.275632 693.244 0.372286C698.913 0.651508 703.487 4.74318 706.59 9.18567C708.547 11.781 709.807 14.7987 711.486 17.5587C716.979 24.5357 722.369 31.5986 727.945 38.5111C728.009 28.588 728.006 18.6613 727.945 8.7382C724.613 7.49602 721.639 5.49851 718.618 3.65493C718.633 2.55236 718.643 1.44622 718.647 0.340068C731.688 0.329329 744.73 0.336489 757.771 0.336489C757.778 1.42474 757.828 2.51299 757.714 3.59408C755.223 3.8554 752.546 4.10956 750.56 5.80637C747.729 8.0831 747.006 11.9493 747.02 15.393C747.02 20.0574 747.002 24.7183 747.027 29.3827C747.092 30.9471 747.031 32.7584 748.316 33.8932C747.929 37.3978 746.881 40.838 747.009 44.3855C747.024 55.0103 747.02 65.6386 747.013 76.2633C746.934 79.3742 747.55 82.4384 747.829 85.5242C747.94 87.042 748.627 88.5742 748.23 90.0956C747.496 90.8473 746.412 91.1731 745.739 92H745.589C744.629 90.0347 743.13 88.4059 741.935 86.5874C731.678 72.3435 721.066 58.3502 710.19 44.5717C709.378 43.5944 709.328 42.2233 708.533 41.2389C707.721 40.2008 706.626 39.4454 705.57 38.6901C705.463 52.6011 705.559 66.5192 705.52 80.4338C707.617 81.2464 709.732 82.0697 711.658 83.2546C713.118 84.1138 714.481 85.3309 714.886 87.0528C702.02 87.0957 689.15 87.0957 676.284 87.0492C676.61 86.1041 677.036 85.1519 677.845 84.5111C680.117 82.5673 682.973 81.5005 685.739 80.4588C685.782 56.5281 685.775 32.5938 685.743 8.66303C682.06 6.934 678.335 5.29089 674.699 3.4652C672.183 5.69898 669.534 7.77524 666.997 9.98396C667.026 20.0252 666.986 30.0629 667.019 40.1005C667.058 42.6028 665.458 44.7686 665.308 47.2458C665.222 49.4795 665.154 51.8422 666.163 53.9041C666.428 54.5413 666.815 55.1391 666.965 55.8229C666.983 58.9444 665.888 61.998 666.235 65.1267C666.639 69.7446 666.929 74.3732 667.036 79.009C669.098 79.9935 671.163 81.0925 672.791 82.7284C673.847 83.7737 674.642 85.1519 674.724 86.6626C673.818 87.468 672.555 87.5647 671.406 87.5396C659.335 87.4752 647.263 87.5897 635.192 87.4823C635.618 86.3547 636.67 85.7139 637.547 84.9693C640.507 82.5172 643.434 80.0221 646.408 77.5879C646.458 69.7446 646.415 61.9013 646.433 54.0581C646.515 53.403 646.161 52.8696 645.803 52.372C646.086 51.7706 646.462 51.1728 646.429 50.4747C646.426 38.4216 646.437 26.3686 646.426 14.3155C646.444 12.1139 645.327 10.1093 643.953 8.46614C641.977 6.12139 639.501 4.25633 636.956 2.57742C636.226 2.14785 635.779 1.41758 635.346 0.723103C647.843 0.662247 660.344 0.694465 672.841 0.708784Z" fill="#FF9900"/>
<path d="M438.065 23.9916C438.527 23.6658 439.275 23.6802 439.64 24.167C440.442 25.0691 440.939 26.186 441.573 27.2062C443.369 30.224 445.495 33.0627 448.072 35.4612C450.266 37.5195 452.298 40.0218 452.731 43.0968C453.268 46.9916 452.406 51.1119 450.266 54.4196C448.684 56.9326 445.864 58.3609 443.036 58.9802C439.49 59.5959 435.875 57.2727 434.411 54.0867C433.638 52.5223 433.681 50.7145 433.803 49.0177C434.054 46.8269 435.163 44.5395 437.242 43.5658C437.65 43.4226 438.166 42.9357 438.513 43.4691C438.76 44.5359 438.627 45.7673 439.339 46.6802C440.485 47.6538 442.686 47.0775 442.843 45.4595C443.498 41.6971 442.951 37.7415 441.426 34.2476C440.302 31.5449 438.863 28.9603 438.08 26.1251C437.904 25.4378 437.65 24.6503 438.065 23.9916Z" fill="#FF3B00"/>
<path d="M445.778 26.4831C445.456 25.8638 446.386 24.7863 446.948 25.4235C448.77 27.0881 450.33 29.0176 451.869 30.9399C451.35 31.3015 450.924 32.0139 450.237 31.9709C448.111 30.8361 446.426 28.8135 445.778 26.4831Z" fill="#FF3B00"/>
</g>
<defs>
<clipPath id="clip0_16_299">
<rect width="758" height="92" fill="white"/>
</clipPath>
</defs>
</svg>
