<svg width="257" height="279" viewBox="0 0 257 279" fill="none" xmlns="http://www.w3.org/2000/svg">
<g clip-path="url(#clip0_16_415)">
<path d="M87.4177 3.86453C90.0631 1.3196 93.8647 0.552976 97.4212 0.590678C111.647 0.603246 125.873 0.552976 140.1 0.615814C158.416 0.716354 176.991 3.89595 193.523 12.0272C208.805 19.442 221.812 31.1739 231.313 45.2055C244.005 63.8181 251.081 85.648 255.347 107.597C256.045 111.719 257.132 115.835 256.893 120.052C256.661 137.25 257.735 154.587 254.939 171.642C252.218 189.154 245.765 206.623 233.612 219.826C226.619 227.523 217.866 233.499 208.396 237.741C208.264 241.354 207.309 244.954 205.342 248.015C200.454 255.662 192.235 260.306 184.204 264.038C167.817 271.29 150.172 275.104 132.609 278.271C124.164 278.642 115.675 277.812 107.312 276.631C87.5308 273.69 68.215 266.112 52.6379 253.406C36.7592 240.631 25.1282 223.244 17.1731 204.625C7.5969 182.318 2.78364 158.289 0 134.266V128.114C0.565526 119.48 1.52064 110.84 3.66335 102.438C8.44518 82.6695 18.744 64.4276 32.5806 49.5916C46.9449 34.0707 64.6459 21.9932 83.3208 12.2534C83.9806 9.18689 85.0488 6.03872 87.4177 3.86453ZM123.373 36.0815C115.279 39.0851 107.444 43.0502 100.814 48.6365C92.9536 55.1339 87.1915 64.1637 84.9168 74.1235C82.994 81.7206 83.4716 89.6005 83.415 97.3547C83.4213 122.917 83.415 148.486 83.4213 174.048C83.4527 184.819 84.5398 195.734 88.2032 205.92C91.4392 215.062 97.2139 223.495 105.357 228.918C114.953 235.428 126.791 237.621 138.202 237.69C142.651 237.797 147.137 236.767 151.008 234.555C157.769 230.747 162.425 224.18 165.875 217.387C171.166 206.768 174.075 195.155 176.287 183.549C178.285 172.534 179.686 161.405 180.415 150.239C180.176 127.429 181.722 104.261 176.406 81.8589C173.396 69.0965 168.112 56.2524 158.247 47.2415C149.349 39.0097 136.977 35.3589 125.019 35.5725C124.604 35.6982 123.781 35.9495 123.373 36.0815Z" fill="#FF9900"/>
<path d="M115.656 77.4413C117.014 77.1586 118.723 77.0203 119.728 78.1828C121.205 79.6847 122.267 81.5321 123.354 83.323C129.669 94.7406 137.291 105.561 146.836 114.516C153.496 120.787 159.836 128.309 161.445 137.596C162.972 148.084 161.797 159.08 157.386 168.77C154.709 174.614 150.895 180.144 145.422 183.675C138.705 188.011 130.536 190.845 122.48 189.481C111.811 187.276 102.693 178.089 101.286 167.174C101.022 161.877 100.827 156.372 102.888 151.364C104.968 145.444 109.857 140.166 116.278 139.211C116.8 142.252 116.769 145.432 117.849 148.36C119.785 154.06 129.713 152.463 130.171 146.538C131.585 139.217 131.101 131.67 129.939 124.35C127.162 109.306 117.485 96.6634 114.274 81.752C114.016 80.2502 114.173 78.2582 115.656 77.4413Z" fill="#FF3B00"/>
<path d="M139.415 85.5035C138.937 83.4989 141.174 80.91 143.204 82.2422C148.878 87.8033 154.225 93.7289 158.919 100.151C157.537 101.282 156.33 102.752 154.596 103.362C153.634 103.613 152.868 102.828 152.082 102.426C146.069 98.492 141.319 92.4847 139.415 85.5035Z" fill="#FF3B00"/>
</g>
<defs>
<clipPath id="clip0_16_415">
<rect width="257" height="279" fill="white"/>
</clipPath>
</defs>
</svg>
