<svg width="25" height="27" viewBox="0 0 25 27" fill="none" xmlns="http://www.w3.org/2000/svg">
<path d="M8.50367 0.374044C8.761 0.12776 9.13081 0.0535709 9.47677 0.0572195C10.8606 0.0584357 12.2445 0.0535709 13.6284 0.059652C15.4101 0.0693817 17.217 0.377084 18.8252 1.16398C20.3117 1.88154 21.577 3.01688 22.5012 4.37479C23.7359 6.17601 24.4242 8.28857 24.8392 10.4127C24.9071 10.8116 25.0128 11.2099 24.9896 11.618C24.967 13.2824 25.0715 14.9601 24.7995 16.6105C24.5348 18.3053 23.9071 19.9959 22.7249 21.2735C22.0446 22.0184 21.1932 22.5968 20.272 23.0072C20.2592 23.3569 20.1663 23.7053 19.9749 24.0015C19.4994 24.7416 18.6999 25.1909 17.9187 25.5522C16.3246 26.2539 14.6082 26.623 12.8998 26.9295C12.0782 26.9654 11.2524 26.8851 10.4389 26.7708C8.51467 26.4862 6.6357 25.7528 5.12042 24.5232C3.57579 23.287 2.44438 21.6043 1.67054 19.8025C0.738998 17.6437 0.270782 15.3183 0 12.9935V12.3982C0.0550122 11.5626 0.147922 10.7265 0.356357 9.91344C0.821516 8.00033 1.82335 6.23499 3.16932 4.79925C4.56663 3.29722 6.28851 2.12844 8.10513 1.18587C8.16932 0.889112 8.27323 0.584449 8.50367 0.374044ZM12.0012 3.49181C11.2139 3.78249 10.4517 4.16621 9.80685 4.70682C9.04218 5.3356 8.48166 6.20945 8.26039 7.1733C8.07335 7.90851 8.1198 8.67107 8.1143 9.42148C8.11491 11.8953 8.1143 14.3697 8.11491 16.8434C8.11797 17.8857 8.22372 18.942 8.58007 19.9278C8.89487 20.8126 9.4566 21.6286 10.2488 22.1534C11.1822 22.7834 12.3337 22.9957 13.4438 23.0024C13.8765 23.0127 14.313 22.913 14.6895 22.6989C15.3472 22.3304 15.8001 21.6949 16.1357 21.0376C16.6504 20.0099 16.9334 18.8861 17.1485 17.7629C17.3429 16.6969 17.4792 15.6199 17.5501 14.5393C17.5269 12.3319 17.6773 10.0898 17.1601 7.92188C16.8674 6.68682 16.3533 5.44384 15.3936 4.57182C14.5281 3.77519 13.3246 3.42188 12.1614 3.44256C12.121 3.45472 12.041 3.47904 12.0012 3.49181Z" fill="#4B4B4B"/>
<path d="M11.2506 7.49434C11.3827 7.46698 11.5489 7.4536 11.6467 7.5661C11.7904 7.71144 11.8937 7.89022 11.9994 8.06353C12.6137 9.16847 13.3552 10.2156 14.2836 11.0822C14.9316 11.6891 15.5483 12.417 15.7048 13.3158C15.8533 14.3307 15.739 15.3949 15.3099 16.3326C15.0495 16.8981 14.6785 17.4333 14.1461 17.775C13.4927 18.1946 12.6981 18.4689 11.9144 18.3369C10.8765 18.1235 9.98963 17.2344 9.85271 16.1781C9.82704 15.6655 9.80809 15.1328 10.0086 14.6481C10.2109 14.0753 10.6865 13.5645 11.3111 13.4721C11.3619 13.7664 11.3588 14.0741 11.464 14.3575C11.6522 14.909 12.618 14.7546 12.6626 14.1811C12.8001 13.4727 12.7531 12.7423 12.64 12.0339C12.3698 10.5781 11.4285 9.35455 11.1162 7.91151C11.0911 7.76617 11.1064 7.5734 11.2506 7.49434Z" fill="white"/>
<path d="M13.5618 8.27457C13.5153 8.08059 13.7329 7.83004 13.9303 7.95896C14.4823 8.49714 15.0025 9.07059 15.4591 9.69207C15.3246 9.80153 15.2072 9.94383 15.0385 10.0028C14.945 10.0271 14.8704 9.95113 14.794 9.91221C14.2091 9.53153 13.747 8.95018 13.5618 8.27457Z" fill="white"/>
</svg>
