<svg width="586" height="285" viewBox="0 0 586 285" fill="none" xmlns="http://www.w3.org/2000/svg">
<g clip-path="url(#clip0_16_312)">
<path d="M132.843 0H133.471L132.688 0.3C135.22 1.27258 137.949 1.02581 140.597 1.03065C149.959 1.02581 159.64 2.0371 168.085 6.36774C174.752 9.73064 180.162 15.7113 182.443 22.8629C182.96 28.771 182.786 35.1968 179.447 40.3355C175.699 46.3016 169.066 49.6258 162.534 51.6193C162.539 51.8081 162.553 52.1855 162.563 52.3693C168.293 53.3177 173.872 55.5726 178.283 59.429C177.984 60.3677 177.641 61.2919 177.264 62.2016C178.24 62.7193 179.225 63.2322 180.22 63.7258C180.911 63.0581 181.679 62.4774 182.501 61.979C185.887 67.171 188.873 73.0161 188.94 79.3548C188.665 82.5048 187.583 85.5242 186.53 88.4855C184.805 92.9226 182.124 97.5242 177.539 99.4403C174.959 100.64 171.785 99.7306 169.423 101.492C168.051 102.377 167.041 103.955 165.297 104.129C152.201 106.394 138.911 107.54 125.616 107.434C116.277 107.439 106.934 107.424 97.5958 107.448C96.5861 107.342 95.0499 107.618 94.6006 106.413C94.2093 105.692 94.7262 105.048 95.2093 104.56C98.1224 101.584 101.775 99.4742 104.92 96.7839C105.253 95.3564 105.069 93.8613 105.098 92.4048C105.069 82.2484 105.103 72.0871 105.079 61.9306C105.007 58.6548 106.306 55.6016 107.736 52.7323C108.432 51.5323 108.152 50.129 107.997 48.8274C107.437 44.729 106.963 40.6161 106.403 36.5177C105.934 33.9774 107.958 31.95 108.441 29.5597C107.325 27.9339 106.161 26.3081 105.504 24.4306C105.007 22.9548 105.079 21.3774 105.069 19.8387C105.103 16.829 105.079 13.8145 105.098 10.8C101.142 7.99355 97.2045 5.15806 93.2093 2.40968C92.3445 1.80484 91.6247 1.02581 90.9194 0.256452C104.514 -0.0629032 118.103 0.972581 131.659 1.90161C132.046 1.2629 132.432 0.624193 132.843 0ZM132.688 12.5613C132.679 23.7726 132.698 34.9887 132.679 46.2048C136.109 46.2193 139.539 46.2532 142.969 46.2097C146.519 46.1564 150.114 44.6564 152.321 41.8016C155.075 38.1919 156.326 33.5226 156.143 29.0081C156.061 26.1097 156.491 23.0032 155.094 20.3274C153.713 17.5403 150.94 15.7645 148.109 14.7145C143.186 12.9145 137.877 12.629 132.688 12.5613ZM132.683 57.7645C132.659 63.9774 132.736 70.1903 132.654 76.4032C132.828 77.729 131.389 77.9855 130.461 78.3387C130.862 79.1661 131.263 80.0032 131.635 80.85C131.166 83.9661 130.625 87.0871 130.558 90.2468C132.302 91.2871 133.099 93.1984 133.823 94.9984C137.036 94.9935 140.249 94.8484 143.432 94.4032C148.273 93.6968 153.317 92.4193 157.09 89.129C159.901 86.7193 161.37 83.0129 161.37 79.3451C161.428 75.7451 161.582 71.971 160.032 68.6274C158.379 64.829 154.896 62.1581 151.143 60.6387C145.302 58.2774 138.915 57.8177 132.683 57.7645Z" fill="#FF9900"/>
<path d="M289.469 0.991947C289.816 0.0822698 291.063 0.585496 291.812 0.401625C300.643 0.464528 309.483 0.396786 318.31 0.87098C321.228 0.94356 324.16 1.45646 327.078 1.02582C333.377 0.183883 339.759 0.42098 346.078 0.895173C354.416 1.65001 362.943 3.22743 370.248 7.53388C375.378 10.529 379.528 15.3242 381.272 21.0629C382.344 24.7161 382.929 28.6307 382.32 32.4194C380.977 38.2065 376.562 42.4645 372.909 46.8871C368.151 52.2968 361.755 57.0968 354.252 57.1549C354.861 58.9161 356.107 60.3194 357.117 61.8484C359.537 65.4339 361.885 69.0774 363.909 72.9049C365.132 75.2758 366.339 77.7145 366.789 80.3758C366.953 82.0694 368.214 83.2984 369.18 84.5903C373.982 90.7307 379.765 96.0823 386.171 100.505C386.591 100.732 387.108 101.323 387.572 100.776C389.982 98.9952 392.277 97.0548 394.678 95.2597C394.427 89.4484 395.161 83.6855 395.794 77.9226C397.064 78.3484 398.379 78.6436 399.726 78.7161C397.866 73.6936 394.262 69.0049 394.678 63.4016C394.75 51.2952 394.823 39.1113 396.9 27.15C397.098 25.1468 396.548 23.1629 396.263 21.1936C395.412 16.7565 394.388 12.1016 391.538 8.47259C390.262 6.77904 388.258 5.86937 386.19 5.62259C386.185 5.07098 386.185 4.51937 386.185 3.97259C390.142 2.32743 394.176 0.396786 398.548 0.362915C409.485 0.585496 420.49 -0.0580527 431.374 1.41292C440.693 2.67582 450.022 5.39517 457.848 10.7661C462.438 13.9597 466.573 17.9903 469.418 22.829C470.645 28.4613 473.327 33.6049 475.873 38.7242C476.844 40.7758 478.317 42.6823 478.423 45.0387C478.762 48.6436 479.708 52.2629 479.104 55.8919C478.066 63.6097 476.728 71.4 473.631 78.5903C471.93 82.379 469.636 86.1678 466.003 88.3549C464.201 89.4968 462.07 89.8839 459.983 90.0678C457.389 93.121 454.8 96.179 451.993 99.0436C451.061 99.9726 450.099 100.965 448.819 101.376C438.785 104.482 428.418 106.621 417.925 107.245C410.983 107.787 404.06 106.79 397.122 106.732C392.219 106.747 387.248 106.108 382.393 107.085C380.069 107.434 377.712 107.758 375.359 107.531C369.765 107.081 364.151 106.902 358.542 106.873C350.692 94.9403 342.856 82.9984 334.624 71.3274C332.629 68.6226 330.778 65.7823 328.402 63.3919C328.725 65.3226 329.373 67.2097 329.319 69.1887C329.281 77.9226 329.344 86.6565 329.286 95.3903C332.025 98.1678 334.88 100.858 338.015 103.19C339.184 104.105 340.542 104.724 341.933 105.218C341.933 105.765 341.933 106.316 341.943 106.863C334.894 106.858 327.841 106.921 320.793 106.844C319.368 106.969 318.996 105.377 318.754 104.318C311.039 107.056 302.715 106.974 294.657 107.632C293.396 108.034 292.159 108.673 290.797 108.344C287.314 107.831 283.473 108.029 280.415 106.035C278.005 106.877 275.507 107.511 272.942 107.535C267.623 107.613 262.309 107.502 256.995 107.574C255.439 107.569 253.946 108.542 252.405 108.068C249.299 107.168 246.038 107.695 242.859 107.55C242.883 107.158 242.932 106.379 242.956 105.987C246.791 104.221 249.473 100.795 252.347 97.8194C252.13 94.9065 251.415 92.0613 250.328 89.3565C251.207 89.0565 252.077 88.65 252.371 87.6871C251.536 87.15 250.569 86.6952 250.11 85.7516C248.313 82.529 247.734 78.8178 247.028 75.242C239.69 75.2226 232.356 75.2178 225.018 75.242C222.806 83.0032 220.153 90.6726 218.762 98.6371C221.989 100.515 224.525 103.316 227.182 105.89C227.173 106.306 227.153 107.139 227.144 107.555C221.332 107.705 215.462 107.129 209.709 108.179C207.424 108.615 205.177 107.715 202.902 107.661C198.424 107.429 193.936 107.637 189.452 107.531C189.486 106.96 189.525 106.394 189.564 105.823C195.525 102.44 200.583 97.4032 203.709 91.2726C205.511 87.9049 206.578 84.2226 207.52 80.5403C213.699 60.1355 219.912 39.7355 226.105 19.3355C226.825 16.7419 227.815 14.2161 228.327 11.5694C225.429 8.9613 221.55 7.20485 219.723 3.5613C223.187 2.34679 226.685 0.841947 230.424 0.914528C238.096 0.967754 245.772 0.846786 253.449 0.977431C257.966 18.1742 262.729 35.3129 267.922 52.3113C267.328 53.8065 266.256 55.8 267.826 57.0968C266.338 59.971 266.821 63.6581 268.613 66.2952C270.164 68.9661 272.439 71.0903 274.251 73.5532C276.169 81.0097 277.415 88.742 280.647 95.7871C281.256 97.4226 282.927 98.1049 284.261 99.0242C286.763 100.727 289.198 102.527 291.657 104.303C295.444 101.008 299.319 97.8145 303.145 94.5629C303.145 78.6726 303.145 62.7871 303.145 46.8968C303.097 44.7774 304.015 42.7887 304.116 40.6984C303.691 39.2565 303.073 37.8387 303.15 36.3049C303.126 29.3516 303.169 22.3936 303.14 15.4355C303.14 13.8581 302.271 12.4597 301.333 11.2549C298.053 7.11292 293.522 4.27743 289.469 0.991947ZM328.416 14.2113C328.909 15.2129 329.329 16.2871 329.315 17.4242C329.29 26.8452 329.324 36.2661 329.3 45.6871C330.575 45.1742 331.919 44.792 333.315 44.879C338.846 44.9565 344.692 44.7194 349.653 41.9807C352.885 40.2339 355.247 37.0307 355.982 33.4258C357.016 28.7129 356.402 23.2113 352.861 19.6549C348.875 15.6581 343.059 14.429 337.648 13.8581C334.58 13.7032 331.377 13.1129 328.416 14.2113ZM421.35 14.5113C421.794 15.2613 422.577 15.9242 422.509 16.8774C422.519 42.1403 422.509 67.4129 422.514 92.6807C428.345 92.8936 434.384 91.2097 438.717 87.1645C444.848 81.5419 447.722 73.35 449.515 65.429C450.877 60.5323 450.114 55.4226 450.355 50.4194C450.616 50.2887 451.128 50.0274 451.384 49.8968C451.027 49.3936 450.684 48.8903 450.341 48.3871C450.389 46.2097 450.292 44.0226 449.858 41.879C448.631 35.2403 446.858 28.471 442.915 22.8774C440.147 18.8903 435.775 15.8807 430.872 15.4161C427.693 15.179 424.524 14.8258 421.35 14.5113ZM236.704 36.7887C235.666 39.5371 234.956 42.4016 234.067 45.1984C232.588 50.4436 230.902 55.6742 230.245 61.1032C231.284 61.3307 232.434 61.3597 233.347 61.9887C234.221 62.5645 234.342 63.7016 234.7 64.6065C237.332 63.15 240.081 61.8968 242.68 60.3823C242.666 60.0532 242.632 59.3903 242.618 59.0613C240.903 51.6339 239.386 44.1532 237.588 36.75C237.371 36.7597 236.927 36.779 236.704 36.7887Z" fill="#FF9900"/>
<path d="M47.7979 118.336C52.9332 118.239 57.7497 116.255 62.7498 115.321C64.9093 115.026 67.0349 115.718 69.1123 116.226C76.8467 118.365 84.3154 121.326 91.7938 124.215C95.9823 121.152 100.697 118.456 105.978 118.074C106.021 137.308 106.06 156.547 105.958 175.776C100.349 167.55 94.6103 159.363 87.8565 152.018C83.1173 146.894 77.9482 142.002 71.7741 138.648C67.3779 136.282 62.1266 134.792 57.1893 136.229C52.6434 137.569 49.2665 141.286 46.938 145.263C43.2519 151.64 41.363 158.855 39.8992 166.021C36.7639 182.245 36.1697 198.827 35.9619 215.313C35.9088 217.05 36.0296 218.802 36.532 220.476C38.7784 228.368 41.392 236.25 45.5225 243.377C47.8945 247.398 50.8173 251.26 54.7883 253.815C58.4744 256.215 63.2329 257.061 67.4552 255.711C70.1413 254.855 72.2814 252.711 73.4118 250.156C75.4892 245.613 75.2814 240.494 75.2718 235.616C75.2669 225.934 75.2766 216.256 75.2718 206.574C75.3394 203.894 74.1655 201.344 72.4601 199.336C69.4214 195.731 65.3151 193.258 61.2184 191.042C61.2087 190.026 61.1991 189.01 61.1942 188.003C77.6776 187.984 94.1561 188.018 110.635 187.984C112.002 187.955 113.48 188.173 114.504 189.174C115.91 190.345 116.099 192.271 116.413 193.955C112.963 196.055 109.499 198.121 106.026 200.177C105.987 225.494 106.031 250.805 106.007 276.121C100.577 276.397 96.1562 272.792 91.8276 270.044C87.5473 273.44 82.325 275.797 76.8129 276.005C73.7742 276.053 70.7258 276.169 67.6968 275.932C65.2909 275.739 63.1556 274.505 61.2184 273.15C59.3488 274.413 57.3536 275.647 55.0589 275.884C46.1264 276.726 36.7639 274.824 29.3386 269.632C20.7105 263.705 14.9761 254.506 10.9664 245.003C4.33824 229.074 1.76331 211.834 0 194.773V193.742C2.49763 177.837 5.81169 161.845 12.6427 147.174C16.3529 139.311 21.2081 131.777 28.0053 126.242C33.5851 121.665 40.5804 118.786 47.7979 118.336Z" fill="#FF9900"/>
<path d="M154.413 119.908C154.882 117.668 156.481 115.456 158.978 115.442C164.93 115.321 170.887 115.403 176.839 115.408C186.148 115.476 195.723 117.881 203.143 123.716C211.318 130.031 216.226 139.64 218.941 149.434C220.178 154.205 221.53 159.063 221.216 164.047C221.327 173.468 221.376 183.3 217.337 192.039C214.491 198.556 209.115 203.816 202.636 206.695C202.467 210.232 199.926 213.039 197.047 214.795C191.897 217.994 185.964 219.595 180.119 220.974C176.959 221.589 173.8 222.576 170.549 222.319C161.722 221.99 152.771 219.774 145.413 214.737C138.577 210.145 133.427 203.371 129.968 195.948C125.722 186.837 123.572 176.879 122.519 166.921C122.253 156.919 125.326 146.831 131.273 138.774C137.21 130.611 145.563 124.568 154.413 119.908ZM170.249 128.956C165.404 130.602 160.718 133.394 157.761 137.676C155.462 140.971 154.49 145.04 154.529 149.023C154.544 160.486 154.505 171.948 154.548 183.411C154.698 189.595 155.896 196.258 160.235 200.956C164.278 205.369 170.563 206.831 176.346 206.656C178.844 206.584 181.211 205.379 182.94 203.603C186.095 200.337 187.684 195.929 188.916 191.642C190.549 185.463 191.443 179.095 191.81 172.723C191.757 163.853 192.312 154.829 190.153 146.144C188.95 141.319 186.863 136.481 183.061 133.137C179.588 130.108 174.814 128.603 170.249 128.956Z" fill="#FF9900"/>
<path d="M217.96 115.069C231.487 115.021 245.004 115.805 258.492 116.84C258.811 116.255 259.135 115.674 259.463 115.094C260.83 115.669 262.27 116.095 263.777 115.965C274.082 115.776 284.811 116.356 294.237 120.948C301.251 124.297 306.976 130.471 309.309 137.937C309.565 140.003 309.396 142.098 309.411 144.174C309.363 149.09 307.696 154.04 304.416 157.737C300.841 161.811 295.879 164.395 290.787 166.045C290.116 166.244 289.411 166.524 289.183 167.26C294.99 168.208 300.71 170.439 305.131 174.421C304.783 175.321 304.416 176.211 304.058 177.111C305.073 177.629 306.082 178.152 307.087 178.694C307.672 177.866 308.406 177.174 309.459 177.073C312.846 182.419 315.933 188.429 315.73 194.927C314.681 200.25 313.024 205.645 309.749 210.048C307.841 212.56 305.087 214.592 301.908 215.018C299.971 215.26 297.855 215.158 296.222 216.402C294.889 217.19 294.019 218.811 292.377 219C280.227 221.11 267.908 222.285 255.574 222.348C244.767 222.334 233.96 222.397 223.158 222.324C221.762 222.547 220.583 220.694 221.801 219.716C224.825 216.697 228.385 214.273 231.854 211.795C231.98 199.911 231.849 188.027 231.917 176.144C231.926 172.64 233.738 169.563 235.047 166.432C234.584 160.936 233.617 155.482 233.11 149.995C233.617 148.084 234.893 146.405 235.212 144.397C233.767 142.287 232.105 140.076 231.936 137.424C231.772 133.539 232.062 129.639 231.825 125.758C227.661 122.526 223.216 119.642 218.955 116.531C218.477 116.148 218.148 115.66 217.96 115.069ZM259.483 127.5C259.526 138.711 259.487 149.927 259.502 161.139C263.193 161.1 266.888 161.24 270.579 161.071C274.338 160.877 277.951 158.836 279.932 155.613C282.019 152.226 283.125 148.195 282.956 144.208C282.86 141.203 283.343 137.976 281.884 135.203C280.415 132.276 277.425 130.486 274.425 129.455C269.628 127.829 264.507 127.519 259.483 127.5ZM259.497 172.684C259.444 178.998 259.608 185.318 259.425 191.627C259.473 192.798 258.057 192.871 257.304 193.277C257.821 194.429 258.613 195.629 258.304 196.95C257.816 199.66 257.444 202.398 257.367 205.156C259.106 206.211 259.917 208.103 260.632 209.918C263.801 209.913 266.975 209.773 270.116 209.342C275.005 208.64 280.101 207.368 283.913 204.044C286.782 201.581 288.227 197.777 288.193 194.037C288.246 190.398 288.362 186.561 286.691 183.213C284.932 179.463 281.381 176.884 277.604 175.418C271.855 173.182 265.608 172.732 259.497 172.684Z" fill="#FF9900"/>
<path d="M319.885 116.226C321.116 115.824 322.353 115.316 323.677 115.379C341.769 115.408 359.861 115.374 377.953 115.398C376.75 117.097 374.939 118.171 373.315 119.415C369.803 121.95 366.228 124.403 362.6 126.774C362.566 130.248 362.566 133.727 362.6 137.206C361.663 137.492 359.837 137.323 360.291 138.832C360.847 147.048 361.513 155.265 361.996 163.49C363.04 177.987 362.373 192.532 362.615 207.048C362.576 208.408 364.006 209.134 365.204 209.018C369.547 209.056 373.885 209.027 378.228 209.018C380.654 206.279 382.335 203.008 384.122 199.844C389.963 189.077 395.229 178.011 400.533 166.969C401.316 166.965 402.103 166.96 402.9 166.955C402.896 179.371 402.939 191.787 402.881 204.198C402.388 207.595 401.891 212.052 398.335 213.61C400.234 216.135 402.287 218.56 403.987 221.226C402.755 221.855 401.379 222.121 400.002 222.135C390.113 222.179 380.204 222.194 370.335 222.968C369.272 223.021 368.214 222.973 367.156 222.919C350.977 222.111 334.769 222.145 318.575 222.116C318.991 220.752 320.31 220.103 321.363 219.3C325.648 216.169 329.88 212.961 334.179 209.85C334.257 205.369 333.986 200.84 334.865 196.413C335.126 195.174 335.31 193.892 335.006 192.648C334.349 189.605 334.233 186.484 334.184 183.382C334.31 182.618 333.749 182.076 333.31 181.553C334.45 177.585 335.218 173.458 335.242 169.321C334.508 156.169 334.17 142.994 334.175 129.823C333.914 129.692 333.387 129.431 333.126 129.305C333.373 128.574 334.667 127.65 333.754 126.934C330.938 124.137 327.368 122.284 324.073 120.126C322.474 119.056 321.247 117.561 319.885 116.226Z" fill="#FF9900"/>
<path d="M409.485 115.858C424.683 115.819 439.877 115.848 455.075 115.844C465.215 115.645 475.365 115.766 485.51 115.742C490.791 115.727 495.718 118.384 499.433 121.998C504.762 127.161 508.395 133.771 511.458 140.458C512.704 143.085 513.501 145.945 515.153 148.369C523.511 161.042 531.7 173.831 540.096 186.474C540.212 168.097 540.139 149.714 540.135 131.337C534.903 128.99 530.487 125.235 525.859 121.916C525.849 119.855 525.854 117.789 525.864 115.727C545.85 115.732 565.84 115.756 585.826 115.718C585.836 117.76 585.86 119.802 585.841 121.844C582.232 121.964 578.444 122.705 575.623 125.11C571.855 128.221 570.319 133.181 569.744 137.864C569.178 142.863 569.507 147.905 569.425 152.923C569.468 159.044 569.328 165.169 569.502 171.29C569.623 173.54 569.744 176.037 571.464 177.716C570.898 183.014 569.855 188.264 569.439 193.577C569.396 212.114 569.434 230.652 569.425 249.194C569.507 254.221 569.164 259.273 569.797 264.281C570.377 270.16 571.009 276.039 571.512 281.932C570.125 282.948 568.777 284.018 567.372 285H567.367C549.816 255.232 531.337 226.021 512.38 197.139C511.39 195.508 511.318 193.51 510.337 191.879C509.105 189.803 507.26 188.211 505.438 186.677C505.419 212.439 505.419 238.2 505.438 263.966C508.632 265.365 511.801 266.869 514.656 268.897C517.221 270.634 519.501 273.077 519.994 276.256C500.148 276.285 480.307 276.29 460.467 276.252C460.882 274.611 461.384 272.923 462.612 271.689C465.974 268.021 470.636 265.984 475.051 263.898C474.984 219.653 475.051 175.413 475.018 131.168C469.544 128.071 464.046 125.008 458.602 121.868C458.597 120.876 458.578 119.884 458.592 118.897C455.694 121.229 452.877 123.663 449.988 126.014C449.341 126.619 448.399 127.21 448.548 128.231C448.534 140.327 448.544 152.424 448.548 164.521C448.539 167.56 446.689 170.202 446.457 173.206C446.307 175.118 446.35 177.053 446.655 178.945C446.954 180.682 447.94 182.182 448.442 183.852C448.573 187.582 447.21 191.226 447.548 194.966C448.051 200.802 448.442 206.647 448.568 212.502C452.698 214.476 457.51 217.137 458.21 222.16C456.882 222.644 455.524 223.132 454.09 223.055C439.138 222.973 424.186 223.123 409.239 222.977C409.785 222.155 410.379 221.342 411.157 220.718C415.19 217.461 419.089 214.04 423.128 210.784C423.215 200.681 423.137 190.573 423.166 180.469C422.891 180.247 422.616 180.024 422.345 179.811C423.548 177.808 423.118 175.427 423.171 173.216C423.162 159.827 423.166 146.444 423.171 133.055C423.186 131.187 422.722 129.329 421.736 127.737C419.282 123.668 415.364 120.784 411.49 118.166C410.611 117.6 410.079 116.685 409.485 115.858Z" fill="#FF9900"/>
<path d="M166.481 144.939C167.732 144.673 168.8 145.239 169.346 146.376C171.872 150.794 174.641 155.144 178.331 158.685C181.013 161.221 183.747 164.115 184.472 167.869C185.317 172.955 184.414 178.437 181.505 182.744C179.501 185.768 176.042 187.592 172.52 188.168C168.196 188.831 163.877 186.019 162.128 182.119C161.181 180.102 161.249 177.798 161.447 175.631C161.829 172.471 163.906 169.408 167.128 168.668C167.375 170.061 167.36 171.561 168.032 172.834C169.225 174.29 172.104 173.715 172.452 171.789C173.041 169.089 172.887 166.282 172.496 163.568C171.64 157.863 168.066 153.077 166.607 147.556C166.331 146.705 166.447 145.805 166.481 144.939Z" fill="#FF3B00"/>
<path d="M176.07 148.031C175.868 147.285 176.785 146.231 177.5 146.865C179.771 148.906 181.684 151.316 183.592 153.692C182.955 154.166 182.327 154.655 181.713 155.158C179.119 153.498 176.781 151.118 176.07 148.031Z" fill="#FF3B00"/>
</g>
<defs>
<clipPath id="clip0_16_312">
<rect width="586" height="285" fill="white"/>
</clipPath>
</defs>
</svg>
